<svg height="512" viewBox="0 0 511.999 511.999" width="512" xmlns="http://www.w3.org/2000/svg"><ellipse cx="90.081" cy="353.661" fill="#2698d1" rx="34.999" ry="35" transform="translate(-6.781 1.797)"/><ellipse cx="332.007" cy="353.661" fill="#176cad" rx="34.999" ry="35" transform="translate(-6.259 5.982)"/><path d="M241.002 403.66h30v70.016h-30z" fill="#878477"/><path d="M255.997 403.66h15.005v70.016h-15.005z" fill="#696453"/><path d="M52.121 403.66h30v70.016h-30z" fill="#878477"/><path d="M429.883 403.66h30v70.016h-30z" fill="#696453"/><path d="M496.999 488.66H15.001c-8.284 0-15-6.716-15-15s6.716-15 15-15h481.998c8.284 0 15 6.716 15 15s-6.716 15-15 15z" fill="#a19d8d"/><path d="M496.999 458.659H255.997v30h241.002c8.284 0 15-6.716 15-15s-6.716-15-15-15z" fill="#878477"/><path d="M496.999 418.66H15.001c-8.284 0-15-6.716-15-15s6.716-15 15-15h481.998c8.284 0 15 6.716 15 15s-6.716 15-15 15z" fill="#c4c0ad"/><path d="M496.999 388.66H255.997v30h241.002c8.284 0 15-6.716 15-15s-6.716-15-15-15z" fill="#a19d8d"/><path d="M422.85 348.772H.01V83.339h265.519c40.569 0 79.54 12.357 112.697 35.736l95.994 67.684c23.655 16.679 37.778 43.917 37.778 72.862.001 49.158-39.991 89.151-89.148 89.151z" fill="#d1f7ff"/><path d="M474.221 186.759l-95.994-67.684C345.07 95.696 306.099 83.339 265.53 83.339h-9.524v265.433H422.85c49.157 0 89.149-39.993 89.149-89.151 0-28.945-14.123-56.183-37.778-72.862z" fill="#a3efff"/><path d="M474.221 186.759l-61.582-43.421H271.005a15 15 0 00-12.721 22.95l49.999 79.999a15 15 0 0012.72 7.05h190.765c-1.883-26.565-15.613-51.112-37.547-66.578z" fill="#2698d1"/><path d="M93.335 238.337h33.333c5.523 0 10-4.477 10-10v-59.999c0-5.523-4.477-10-10-10H93.335c-5.523 0-10 4.477-10 10v59.999c0 5.523 4.478 10 10 10zm86.668-79.999h-3.334c-5.523 0-10 4.477-10 10v59.999c0 5.523 4.477 10 10 10h3.334c22.091 0 40-17.908 40-40-.001-22.09-17.909-39.999-40-39.999zm-136.668 0H10.01c-5.523 0-10 4.477-10 10v59.999c0 5.523 4.477 10 10 10h33.325c5.523 0 10-4.477 10-10v-59.999c0-5.523-4.477-10-10-10z" fill="#72c5fc"/><path d="M73.341 53.339H15c-8.284 0-15-6.716-15-15s6.716-15 15-15h58.341c8.284 0 15 6.716 15 15 0 8.285-6.715 15-15 15z" fill="#a3efff"/></svg>